<svg xmlns="http://www.w3.org/2000/svg" xmlns:xlink="http://www.w3.org/1999/xlink" width="1563" zoomAndPan="magnify" viewBox="0 0 1172.25 1172.249948" height="1563" preserveAspectRatio="xMidYMid meet" version="1.0"><defs><clipPath id="749783c470"><path d="M 0 2.195312 L 1171.5 2.195312 L 1171.5 1169.199219 L 0 1169.199219 Z M 0 2.195312 " clip-rule="nonzero"/></clipPath></defs><g clip-path="url(#749783c470)"><path fill="#f43f01" d="M 1170.484375 790.613281 C 1169.910156 786.421875 1168.976562 782.308594 1167.6875 778.277344 L 1165.410156 772.351562 C 1164.636719 770.382812 1163.527344 768.558594 1162.582031 766.664062 C 1162.074219 765.738281 1161.628906 764.769531 1161.054688 763.878906 L 1159.277344 761.246094 C 1158.140625 759.453125 1156.890625 757.746094 1155.523438 756.125 L 1151.34375 751.339844 C 1149.820312 749.882812 1148.242188 748.480469 1146.675781 747.0625 C 1145.046875 745.535156 1143.65625 744.496094 1142.234375 743.382812 L 1137.957031 740.03125 L 1129.40625 733.328125 L 1112.328125 719.882812 L 1094.960938 706.824219 C 1091.398438 704.183594 1087.867188 701.5 1084.316406 698.839844 C 1103.988281 685.285156 1123.363281 671.296875 1142.613281 657.140625 C 1149.355469 652.007812 1155.097656 645.929688 1159.839844 638.90625 C 1164.414062 631.734375 1167.640625 624 1169.519531 615.699219 C 1171.394531 607.390625 1171.71875 599.019531 1170.488281 590.589844 C 1169.910156 586.398438 1168.980469 582.285156 1167.691406 578.253906 L 1165.414062 572.328125 C 1164.644531 570.355469 1163.53125 568.535156 1162.585938 566.640625 C 1162.078125 565.714844 1161.632812 564.746094 1161.0625 563.855469 L 1159.28125 561.222656 C 1158.148438 559.429688 1156.898438 557.722656 1155.53125 556.097656 L 1151.351562 551.316406 C 1149.832031 549.855469 1148.25 548.457031 1146.6875 547.039062 C 1145.054688 545.507812 1143.664062 544.46875 1142.242188 543.355469 L 1137.964844 540.003906 L 1129.414062 533.300781 L 1112.339844 519.859375 L 1094.972656 506.800781 C 1091.390625 504.140625 1087.835938 501.441406 1084.261719 498.769531 C 1103.957031 485.238281 1123.355469 471.261719 1142.613281 457.105469 C 1149.355469 451.972656 1155.097656 445.898438 1159.839844 438.875 C 1164.414062 431.703125 1167.640625 423.964844 1169.519531 415.667969 C 1171.394531 407.359375 1171.71875 398.988281 1170.488281 390.558594 C 1169.910156 386.363281 1168.980469 382.253906 1167.691406 378.222656 L 1165.414062 372.292969 C 1164.644531 370.324219 1163.535156 368.503906 1162.589844 366.609375 C 1162.078125 365.679688 1161.632812 364.714844 1161.0625 363.824219 L 1159.28125 361.1875 C 1158.148438 359.398438 1156.898438 357.691406 1155.53125 356.066406 L 1151.351562 351.285156 C 1149.832031 349.824219 1148.25 348.425781 1146.6875 347.007812 C 1145.054688 345.476562 1143.664062 344.4375 1142.242188 343.324219 L 1137.96875 339.972656 L 1129.414062 333.269531 L 1112.339844 319.828125 L 1094.976562 306.769531 C 1089.160156 302.453125 1083.457031 297.972656 1077.542969 293.796875 L 1059.886719 281.144531 C 1048.1875 272.59375 1036.113281 264.617188 1024.207031 256.378906 C 1012.300781 248.132812 1000.144531 240.304688 988.117188 232.242188 L 951.601562 208.820312 C 902.652344 178.042969 853.054688 148.511719 803.542969 119.207031 C 754.035156 89.878906 704.757812 60.515625 656.648438 29.640625 L 638.625 18.050781 L 634.109375 15.171875 C 633.480469 14.753906 632.253906 14.03125 631.289062 13.453125 C 630.261719 12.847656 629.246094 12.226562 628.203125 11.652344 C 623.988281 9.398438 619.605469 7.535156 615.054688 6.0625 C 610.5 4.585938 605.847656 3.53125 601.097656 2.898438 C 596.351562 2.265625 591.585938 2.058594 586.804688 2.285156 C 582.019531 2.507812 577.292969 3.160156 572.628906 4.238281 C 567.960938 5.316406 563.429688 6.804688 559.03125 8.699219 C 554.648438 10.589844 550.457031 12.839844 546.457031 15.445312 L 519.445312 32.71875 C 507.414062 40.355469 495.242188 47.824219 483.152344 55.382812 L 446.441406 77.496094 C 434.078125 84.714844 421.8125 92.035156 409.375 99.167969 L 334.703125 142.085938 C 309.730469 156.34375 284.679688 170.667969 259.773438 185.304688 L 222.453125 207.445312 C 210.105469 215.042969 197.644531 222.410156 185.394531 230.199219 C 136.269531 261.097656 88.03125 293.863281 41.773438 329.410156 L 33.074219 336.035156 L 30.898438 337.691406 L 28.179688 340.039062 C 26.398438 341.65625 24.527344 343.160156 22.882812 344.917969 C 16.101562 351.929688 10.742188 359.902344 6.8125 368.828125 C 2.910156 377.722656 0.730469 387.019531 0.273438 396.71875 C 0.0234375 401.507812 0.171875 406.28125 0.71875 411.046875 L 1.96875 418.117188 C 2.375 420.476562 3.210938 422.746094 3.851562 425.050781 C 4.210938 426.195312 4.515625 427.355469 4.9375 428.476562 L 6.324219 431.800781 C 7.195312 434.042969 8.210938 436.214844 9.371094 438.320312 C 10.554688 440.414062 11.726562 442.519531 12.976562 444.5625 C 14.375 446.519531 15.792969 448.457031 17.234375 450.378906 L 18.320312 451.816406 L 19.527344 453.144531 L 21.976562 455.773438 L 24.453125 458.375 C 25.292969 459.21875 26.238281 459.945312 27.132812 460.730469 C 28.90625 462.222656 30.871094 463.894531 32.53125 465.179688 L 36.953125 468.375 L 54.625 481.152344 L 63.464844 487.53125 L 72.421875 493.742188 C 75.425781 495.835938 78.445312 497.898438 81.457031 499.972656 C 68.085938 509.597656 54.855469 519.425781 41.757812 529.453125 L 33.058594 536.078125 L 30.882812 537.734375 L 28.160156 540.089844 C 26.382812 541.703125 24.507812 543.207031 22.867188 544.96875 C 16.085938 551.980469 10.730469 559.953125 6.804688 568.882812 C 2.902344 577.777344 0.726562 587.074219 0.273438 596.777344 C 0.0234375 601.5625 0.171875 606.339844 0.722656 611.101562 L 1.972656 618.175781 C 2.386719 620.53125 3.214844 622.800781 3.855469 625.109375 C 4.21875 626.25 4.519531 627.414062 4.949219 628.53125 L 6.332031 631.859375 C 7.207031 634.097656 8.222656 636.269531 9.386719 638.375 C 10.566406 640.46875 11.734375 642.574219 12.992188 644.617188 C 14.390625 646.570312 15.808594 648.507812 17.25 650.433594 L 18.332031 651.871094 L 19.546875 653.195312 L 21.992188 655.824219 L 24.46875 658.425781 C 25.316406 659.269531 26.257812 659.996094 27.152344 660.78125 L 29.886719 663.070312 L 31.261719 664.207031 C 31.714844 664.574219 32.222656 665.003906 32.546875 665.222656 L 36.964844 668.417969 L 54.628906 681.199219 L 63.46875 687.578125 L 72.421875 693.796875 C 75.414062 695.886719 78.429688 697.945312 81.433594 700.023438 C 68.035156 709.664062 54.773438 719.507812 41.65625 729.5625 L 32.957031 736.191406 L 30.753906 737.878906 L 28.03125 740.234375 C 26.257812 741.855469 24.367188 743.339844 22.746094 745.128906 C 15.972656 752.148438 10.636719 760.132812 6.738281 769.078125 C 2.847656 777.980469 0.691406 787.28125 0.265625 796.988281 C 0.0195312 801.773438 0.179688 806.550781 0.75 811.3125 L 2.007812 818.382812 C 2.449219 820.734375 3.257812 823.007812 3.90625 825.3125 C 6.824219 834.578125 11.308594 843.011719 17.359375 850.613281 C 18.839844 852.5 20.429688 854.292969 22.117188 855.992188 L 24.597656 858.589844 C 25.464844 859.40625 26.390625 860.152344 27.289062 860.929688 L 30.027344 863.222656 L 31.402344 864.355469 C 31.878906 864.753906 32.328125 865.113281 32.660156 865.335938 L 37.070312 868.535156 L 54.707031 881.320312 L 63.53125 887.703125 L 72.457031 893.9375 C 119.984375 927.3125 168.65625 958.871094 218.472656 988.613281 C 318.035156 1048.050781 421.394531 1100.332031 526.035156 1149.003906 L 545.6875 1158.066406 L 550.601562 1160.324219 L 553.082031 1161.460938 L 556.035156 1162.722656 C 557.980469 1163.597656 560.046875 1164.246094 562.054688 1164.996094 C 564.125 1165.601562 566.152344 1166.324219 568.269531 1166.789062 C 576.734375 1168.9375 585.324219 1169.75 594.039062 1169.21875 C 602.636719 1168.671875 610.980469 1166.90625 619.0625 1163.917969 C 622.820312 1162.511719 626.5 1160.914062 630.097656 1159.132812 L 639.863281 1154.457031 L 659.394531 1145.113281 C 672.402344 1138.859375 685.332031 1132.417969 698.300781 1126.082031 C 750.046875 1100.441406 801.152344 1073.511719 851.609375 1045.285156 L 870.503906 1034.675781 L 889.265625 1023.824219 C 901.804688 1016.652344 914.175781 1009.179688 926.574219 1001.761719 C 939 994.386719 951.242188 986.707031 963.582031 979.191406 C 975.800781 971.480469 988.050781 963.8125 1000.175781 955.957031 C 1012.25 948.019531 1024.421875 940.226562 1036.351562 932.078125 L 1054.363281 920.019531 L 1072.199219 907.710938 C 1096.003906 891.328125 1119.363281 874.320312 1142.613281 857.171875 C 1149.359375 852.039062 1155.097656 845.960938 1159.839844 838.9375 C 1164.417969 831.761719 1167.644531 824.027344 1169.519531 815.726562 C 1171.394531 807.417969 1171.71875 799.046875 1170.484375 790.613281 Z M 60.363281 637.101562 L 56.09375 633.898438 C 55.808594 633.691406 55.539062 633.464844 55.285156 633.21875 L 54.605469 632.605469 L 53.226562 631.402344 C 52.777344 630.996094 52.265625 630.644531 51.855469 630.203125 L 50.667969 628.84375 L 49.449219 627.515625 L 48.832031 626.859375 L 48.328125 626.113281 C 47.65625 625.125 46.960938 624.152344 46.246094 623.199219 L 44.542969 620.050781 C 43.964844 619 43.484375 617.910156 43.097656 616.777344 L 42.40625 615.121094 C 42.195312 614.5625 42.09375 613.960938 41.925781 613.386719 C 41.566406 612.242188 41.269531 611.082031 41.03125 609.90625 C 40.863281 608.710938 40.671875 607.523438 40.453125 606.34375 C 40.246094 603.941406 40.230469 601.535156 40.402344 599.128906 C 40.695312 594.300781 41.859375 589.695312 43.898438 585.308594 C 45.917969 580.984375 48.609375 577.132812 51.976562 573.75 C 52.777344 572.875 53.804688 572.207031 54.675781 571.394531 L 56.015625 570.199219 L 58.148438 568.609375 L 66.6875 562.25 C 83.683594 549.4375 100.953125 537.003906 118.5 524.945312 C 151.515625 546.699219 185.042969 567.558594 219.089844 587.53125 C 319.101562 646.167969 422.59375 697.664062 526.027344 748.253906 L 545.441406 757.699219 L 550.300781 760.054688 L 552.746094 761.238281 L 555.691406 762.574219 C 557.628906 763.503906 559.699219 764.191406 561.699219 764.988281 C 563.773438 765.636719 565.800781 766.394531 567.921875 766.902344 C 572.128906 768.042969 576.398438 768.839844 580.730469 769.296875 C 585.066406 769.75 589.40625 769.859375 593.757812 769.617188 C 598.109375 769.378906 602.414062 768.792969 606.671875 767.863281 C 610.929688 766.933594 615.085938 765.667969 619.140625 764.074219 C 621.125 763.253906 623.125 762.464844 625.03125 761.5 L 627.828125 760.128906 L 630.222656 758.886719 L 639.800781 753.90625 L 658.960938 743.945312 L 697.253906 723.953125 C 748.277344 697.203125 799.203125 670.148438 849.644531 642.121094 L 868.570312 631.625 L 887.402344 620.949219 C 899.988281 613.890625 912.429688 606.558594 924.914062 599.3125 C 937.398438 592.066406 949.769531 584.605469 962.203125 577.261719 C 974.515625 569.707031 986.894531 562.261719 999.125 554.5625 C 1011.320312 546.808594 1023.601562 539.199219 1035.644531 531.203125 L 1053.824219 519.386719 L 1064.292969 512.332031 L 1064.316406 512.351562 C 1070.242188 516.355469 1075.941406 520.65625 1081.765625 524.792969 L 1099.160156 537.328125 L 1116.21875 550.300781 L 1128.96875 560.085938 C 1130.324219 561.070312 1131.621094 562.121094 1132.859375 563.246094 L 1136.191406 566.207031 L 1139.132812 569.53125 C 1140.109375 570.648438 1140.988281 571.828125 1141.777344 573.082031 L 1143.058594 574.890625 C 1143.46875 575.503906 1143.761719 576.191406 1144.125 576.832031 C 1144.773438 578.15625 1145.617188 579.394531 1146.148438 580.773438 L 1147.789062 584.902344 C 1148.714844 587.730469 1149.390625 590.617188 1149.824219 593.558594 C 1150.769531 599.511719 1150.605469 605.433594 1149.328125 611.324219 C 1148.046875 617.199219 1145.828125 622.695312 1142.664062 627.808594 C 1139.3125 632.820312 1135.261719 637.191406 1130.523438 640.917969 C 1107.472656 657.890625 1084.269531 674.664062 1060.53125 690.679688 L 1042.75 702.726562 L 1024.773438 714.484375 C 1012.828125 722.378906 1000.585938 729.832031 988.472656 737.472656 C 939.820312 767.753906 889.8125 795.878906 839.226562 822.957031 C 788.589844 849.964844 737.316406 875.84375 685.714844 901.152344 L 646.976562 920.082031 L 627.574219 929.492188 L 617.875 934.199219 L 615.449219 935.375 C 614.621094 935.78125 614.0625 936 613.355469 936.324219 C 612.03125 936.964844 610.65625 937.445312 609.296875 937.972656 C 606.621094 938.960938 603.878906 939.730469 601.078125 940.28125 C 598.273438 940.832031 595.445312 941.15625 592.59375 941.253906 C 589.738281 941.347656 586.894531 941.21875 584.0625 940.859375 C 581.230469 940.5 578.445312 939.921875 575.703125 939.117188 C 574.324219 938.777344 573.003906 938.203125 571.648438 937.773438 C 570.335938 937.1875 568.976562 936.746094 567.695312 936.070312 L 565.75 935.140625 L 563.371094 933.921875 L 558.574219 931.457031 L 539.375 921.617188 C 436.914062 869.339844 335.082031 816.296875 237.308594 757.082031 C 188.515625 727.351562 140.796875 696.019531 94.675781 662.554688 L 86.007812 656.3125 L 77.453125 649.914062 Z M 1149.328125 811.355469 C 1148.050781 817.230469 1145.828125 822.726562 1142.667969 827.839844 C 1139.3125 832.851562 1135.265625 837.222656 1130.523438 840.949219 C 1107.464844 857.980469 1084.304688 874.867188 1060.703125 891.128906 C 1037.242188 907.589844 1013.28125 923.320312 989.136719 938.753906 C 977.054688 946.457031 964.855469 953.972656 952.683594 961.53125 L 934.28125 972.628906 C 928.152344 976.34375 922.019531 980.042969 915.792969 983.589844 C 903.390625 990.769531 891.019531 997.996094 878.472656 1004.925781 L 859.714844 1015.417969 L 840.820312 1025.667969 C 790.347656 1052.851562 739.089844 1078.539062 687.046875 1102.734375 C 674.015625 1108.734375 661.039062 1114.835938 647.972656 1120.75 L 628.355469 1129.59375 C 621.902344 1132.421875 614.878906 1135.890625 609.71875 1137.636719 C 606.988281 1138.601562 604.203125 1139.355469 601.359375 1139.894531 C 598.511719 1140.433594 595.644531 1140.757812 592.75 1140.859375 C 589.859375 1140.964844 586.972656 1140.847656 584.097656 1140.511719 C 581.222656 1140.175781 578.390625 1139.621094 575.597656 1138.855469 C 574.199219 1138.535156 572.851562 1137.976562 571.476562 1137.566406 C 570.136719 1137 568.757812 1136.574219 567.441406 1135.925781 L 565.449219 1135.023438 L 563.050781 1133.855469 L 558.214844 1131.496094 L 538.855469 1122.078125 C 435.621094 1071.90625 334.285156 1018.160156 236.980469 958.164062 C 188.414062 928.046875 140.878906 896.367188 94.789062 862.753906 L 86.128906 856.484375 L 77.574219 850.070312 L 60.476562 837.222656 L 56.203125 834.011719 C 55.902344 833.800781 55.617188 833.566406 55.355469 833.3125 L 54.675781 832.699219 L 53.296875 831.496094 C 52.84375 831.09375 52.351562 830.726562 51.917969 830.304688 L 50.730469 828.945312 C 49.882812 828.09375 49.101562 827.183594 48.382812 826.222656 C 45.445312 822.382812 43.300781 818.148438 41.949219 813.507812 C 41.683594 812.335938 41.207031 811.222656 41.046875 810.027344 C 40.878906 808.832031 40.6875 807.648438 40.472656 806.464844 C 40.25 804.0625 40.226562 801.65625 40.398438 799.25 C 40.675781 794.421875 41.832031 789.8125 43.867188 785.421875 C 45.867188 781.085938 48.554688 777.230469 51.921875 773.84375 C 52.703125 772.953125 53.746094 772.300781 54.613281 771.484375 L 55.949219 770.289062 L 58.050781 768.71875 L 66.585938 762.359375 C 83.601562 749.53125 100.890625 737.085938 118.460938 725.023438 C 151.460938 746.804688 184.988281 767.6875 219.039062 787.675781 C 319.078125 846.3125 422.609375 897.714844 526.039062 948.292969 L 545.457031 957.738281 L 550.3125 960.09375 L 552.761719 961.28125 L 555.710938 962.617188 C 557.652344 963.546875 559.722656 964.230469 561.730469 965.03125 C 563.804688 965.675781 565.835938 966.433594 567.960938 966.9375 C 572.164062 968.0625 576.429688 968.851562 580.761719 969.300781 C 585.089844 969.746094 589.429688 969.847656 593.773438 969.605469 C 598.121094 969.363281 602.421875 968.777344 606.671875 967.851562 C 610.925781 966.921875 615.078125 965.664062 619.132812 964.074219 C 621.113281 963.269531 623.105469 962.480469 625.011719 961.53125 C 625.929688 961.085938 627.023438 960.582031 627.800781 960.179688 L 630.199219 958.945312 L 639.808594 954.011719 L 659.023438 944.140625 L 697.40625 924.285156 C 748.539062 897.703125 799.5 870.679688 849.9375 842.621094 L 868.859375 832.109375 L 887.683594 821.40625 C 900.261719 814.332031 912.699219 806.992188 925.167969 799.710938 C 937.648438 792.457031 949.996094 784.953125 962.417969 777.585938 C 974.722656 770.019531 987.074219 762.523438 999.292969 754.8125 C 1011.464844 747.023438 1023.734375 739.394531 1035.761719 731.367188 L 1053.914062 719.511719 L 1064.382812 712.429688 C 1070.28125 716.417969 1075.957031 720.699219 1081.753906 724.816406 L 1099.148438 737.351562 L 1116.207031 750.324219 L 1124.710938 756.851562 L 1128.960938 760.113281 C 1130.316406 761.097656 1131.613281 762.148438 1132.855469 763.273438 L 1136.1875 766.234375 L 1139.128906 769.558594 C 1140.105469 770.671875 1140.984375 771.855469 1141.773438 773.109375 L 1143.054688 774.917969 C 1143.46875 775.53125 1143.757812 776.21875 1144.121094 776.859375 C 1144.773438 778.183594 1145.613281 779.421875 1146.148438 780.800781 L 1147.789062 784.929688 C 1148.710938 787.757812 1149.390625 790.644531 1149.824219 793.585938 C 1150.769531 799.539062 1150.605469 805.464844 1149.328125 811.355469 Z M 1149.328125 811.355469 " fill-opacity="1" fill-rule="nonzero"/></g></svg>